<svg xmlns="http://www.w3.org/2000/svg" version="1.1" xmlns:xlink="http://www.w3.org/1999/xlink" xmlns:svgjs="http://svgjs.dev/svgjs" width="100%" height="100%" viewBox="0 0 1000 600"><rect width="1000" height="600" x="0" y="0" fill="#22c55e"/><g><rect width="333.3333333333333" height="333.3333333333333" y="250.3094774832725" fill="#161b21" transform="matrix(0.5480359191875368,0,0,0.5480359191875368,0,71.48210143069537)" x="228.08723449707028"/><path d="M439.1140264716908 476.1130404449908L439.1140264716908 491.97613520282493L350.3937910624911 491.97613520282493L350.3937910624911 341.97613974413105L368.1914095712806 341.97613974413105L368.1914095712806 476.1130404449908L439.1140264716908 476.1130404449908Z " fill="#f4a950" transform="matrix(0.5480359191875368,0,0,0.5480359191875368,0,71.48210143069537)"/><path d="M712.2584294197917 445.3502388699804L712.2584294197917 457.4199842458697L644.7539060323132 457.4199842458697L644.7539060323132 343.2895589278919L658.2955715759939 343.2895589278919L658.2955715759939 445.3502388699804L712.2584294197917 445.3502388699804ZM730.5102395004049 457.4199842458697L730.5102395004049 375.89825187588553L743.5537166796023 375.89825187588553L743.5537166796023 457.4199842458697L730.5102395004049 457.4199842458697ZM727.7475585700887 351.1247032056737L727.7475585700887 351.1247032056737Q727.7475585700887 347.3656455463911 730.2611453181632 344.67089939305Q732.7973769918962 341.9761532397088 736.714949130787 341.9761532397088L736.714949130787 341.9761532397088Q740.6325212696779 341.9761532397088 743.3952021999941 344.67089939305Q746.1578831303101 347.3656455463911 746.1578831303101 351.1247032056737L746.1578831303101 351.1247032056737Q746.1578831303101 354.861115939298 743.3952021999941 357.3067679103975Q740.6325212696779 359.752419881497 736.714949130787 359.752419881497L736.714949130787 359.752419881497Q732.7973769918962 359.752419881497 730.2611453181632 357.3067679103975Q727.7475585700887 354.861115939298 727.7475585700887 351.1247032056737ZM836.8281654662592 457.4199842458697L823.7846882870617 457.4199842458697L823.7846882870617 410.9525967949787Q823.7846882870617 398.22614857499786 820.1162103304124 391.7949896880325Q816.4477323737632 385.3638308010671 806.6651244893651 385.3638308010671L806.6651244893651 385.3638308010671Q798.0147628878834 385.3638308010671 792.3988213246179 390.00604056102446Q786.760234835694 394.6482503209819 784.4730973442028 401.6681772750639L784.4730973442028 401.6681772750639L784.4730973442028 457.4199842458697L771.4296201650053 457.4199842458697L771.4296201650053 375.89825187588553L780.5781701309701 375.89825187588553L783.0238221020696 385.839374239892L783.6578800205028 385.839374239892Q787.5754521593938 380.63104133847634 794.1877704516259 377.2795923410436Q800.7774438181995 373.95078826926925 809.9259937841645 373.95078826926925L809.9259937841645 373.95078826926925Q816.6062468533714 373.95078826926925 821.6560652751788 375.49064321403563Q826.7058836969861 377.030498158802 830.0573326944188 380.9480702976929Q833.3861367661932 384.8656424365838 835.1071511162262 391.47796072881584Q836.8281654662592 398.06763409538956 836.8281654662592 408.1899158646626L836.8281654662592 408.1899158646626L836.8281654662592 457.4199842458697ZM908.3861305465786 457.4199842458697L881.1669299052672 420.7352046793768L873.6714595123603 420.7352046793768L873.6714595123603 457.4199842458697L860.6279823331629 457.4199842458697L860.6279823331629 343.2895589278919L873.6714595123603 343.2895589278919L873.6714595123603 412.7415459219867L880.3517125815674 410.4544084304955L905.6234496162625 375.89825187588553L920.7955498073428 375.89825187588553L895.8408417318644 408.6654593034875L889.1605886626573 414.05495161016984L897.3127618996558 420.57669019976856L924.5319625409671 457.4199842458697L908.3861305465786 457.4199842458697ZM999.2149273621359 379.31763565029325L999.2149273621359 461.1790419051523Q999.2149273621359 476.9852000146659 990.8136599428959 484.4806704075728Q982.4123925236559 491.97614080047964 965.9495315700508 491.97614080047964L965.9495315700508 491.97614080047964Q956.1669236856527 491.97614080047964 950.2113082375121 490.7533148149299Q944.2556927893717 489.53048882938015 940.0210916912641 487.5830252227638L940.0210916912641 487.5830252227638L943.4404754656717 476.4870116501827Q947.1995331249544 477.9589318179741 951.7738081079368 479.2723375061571Q956.325438165261 480.56309826868187 963.6623940785595 480.56309826868187L963.6623940785595 480.56309826868187Q970.5238065530331 480.56309826868187 974.8263424281157 479.3402722831321Q979.1515232288565 478.1174462975823 981.7556896795644 475.2641856646329Q984.3825010559304 472.41092503168346 985.3562328592387 467.9272297513343Q986.3299646625468 463.4435344709852 986.3299646625468 457.26146976626137L986.3299646625468 457.26146976626137L986.3299646625468 449.4263254884796L985.6732618184552 449.4263254884796Q982.4123925236559 454.15911495107036 977.3625741018485 456.69534662480316Q972.3127556800412 459.2089333728777 964.1605824430427 459.2089333728777L964.1605824430427 459.2089333728777Q947.6977214894376 459.2089333728777 939.953156914289 448.95078204965466Q932.2085923391406 438.66998580077336 932.2085923391406 416.97614702009423L932.2085923391406 416.97614702009423Q932.2085923391406 396.1201704887733 942.149714703147 385.2732510984337Q952.0908370671535 374.42633170809415 971.4975383563414 374.42633170809415L971.4975383563414 374.42633170809415Q980.7819578762561 374.42633170809415 987.3942761684883 375.89825187588553Q993.9839495350619 377.3701720436769 999.2149273621359 379.31763565029325L999.2149273621359 379.31763565029325ZM966.447719934534 447.7958908410799L966.447719934534 447.7958908410799Q974.7584076511407 447.7958908410799 979.4911971137313 443.6518694456057Q984.2013416506638 439.4852031244732 986.1714501829384 430.67632704338325L986.1714501829384 430.67632704338325L986.1714501829384 388.94172905508304Q979.6497115933397 385.839374239892 969.5274298240666 385.839374239892L969.5274298240666 385.839374239892Q958.4540611771439 385.839374239892 952.0908370671535 393.3348446327988Q945.727612957163 400.852959951364 945.727612957163 416.81763254048593L945.727612957163 416.81763254048593Q945.727612957163 423.67904501495957 946.8825041657377 429.3855662808585Q948.0147504486541 435.0920875467574 950.4604024197538 439.1681741652566Q952.9060543908532 443.2442607837558 956.8236265297443 445.5087533495887Q960.7411986686351 447.7958908410799 966.447719934534 447.7958908410799ZM1078.9477106051122 441.4326667310895L1083.8390145473113 450.898245656271Q1078.9477106051122 454.8158177951619 1071.5201749891803 457.1029552866531Q1064.0926393732484 459.367447852486 1055.7819516566415 459.367447852486L1055.7819516566415 459.367447852486Q1046.497532136727 459.367447852486 1039.636119662253 456.35567273992825Q1032.7973521134377 453.3438976273705 1028.4042365357218 447.72795606410494Q1023.9884760323479 442.089369575181 1021.8824979461232 434.27687022305753Q1019.7538749342403 426.4417259452757 1019.7538749342403 416.65911806087763L1019.7538749342403 416.65911806087763Q1019.7538749342403 395.78049660389837 1029.0382944541552 384.8656424365838Q1038.3453588997281 373.95078826926925 1055.6234371770333 373.95078826926925L1055.6234371770333 373.95078826926925Q1061.1714439633238 373.95078826926925 1066.7194507496147 375.17361425481903Q1072.2448126102468 376.3964402403688 1076.660573113621 379.81582401477647Q1081.053688691337 383.23520778918413 1083.8390145473113 389.50785219654125Q1086.6016954776273 395.78049660389837 1086.6016954776273 406.06129285277973L1086.6016954776273 406.06129285277973Q1086.6016954776273 411.450785159462 1085.6279636743193 417.9725237490607L1085.6279636743193 417.9725237490607L1033.295540477921 417.9725237490607Q1033.295540477921 425.12832025709264 1034.7448157200542 430.67632704338325Q1036.2167358878455 436.2243338296738 1039.3190907030366 440.05132626593144Q1042.4214455182278 443.878318702189 1047.3806842374015 445.9163620114386Q1052.362567882234 447.95440532068824 1059.5410093159244 447.95440532068824L1059.5410093159244 447.95440532068824Q1065.0890161022148 447.95440532068824 1070.614377962847 446.0069417140719Q1076.1623847491378 444.0594781074556 1078.9477106051122 441.4326667310895L1078.9477106051122 441.4326667310895ZM1055.7819516566415 385.3638308010671L1055.7819516566415 385.3638308010671Q1046.1578582518518 385.3638308010671 1040.3834022089782 390.4136492228744Q1034.5863012404457 395.46346764468177 1033.4540549575295 407.69172750017935L1033.4540549575295 407.69172750017935L1073.8752472576466 407.69172750017935Q1073.8752472576466 395.30495316507347 1069.165102720714 390.3230695202411Q1064.4323132581235 385.3638308010671 1055.7819516566415 385.3638308010671ZM1172.5165434253272 457.4199842458697L1159.4730662461297 457.4199842458697L1159.4730662461297 410.9525967949787Q1159.4730662461297 398.22614857499786 1155.8045882894808 391.7949896880325Q1152.1361103328313 385.3638308010671 1142.3535024484331 385.3638308010671L1142.3535024484331 385.3638308010671Q1133.72578577261 385.3638308010671 1128.087199283686 390.00604056102446Q1122.4712577204205 394.6482503209819 1120.1841202289293 401.6681772750639L1120.1841202289293 401.6681772750639L1120.1841202289293 457.4199842458697L1107.1406430497318 457.4199842458697L1107.1406430497318 375.89825187588553L1116.2665480900382 375.89825187588553L1118.7122000611375 385.839374239892L1119.3689029052293 385.839374239892Q1123.28647504412 380.63104133847634 1129.8987933363524 377.2795923410436Q1136.488466702926 373.95078826926925 1145.6143717432324 373.95078826926925L1145.6143717432324 373.95078826926925Q1152.3172697380978 373.95078826926925 1157.367088159905 375.49064321403563Q1162.4169065817127 377.030498158802 1165.768355579145 380.9480702976929Q1169.0971596509194 384.8656424365838 1170.8181740009527 391.47796072881584Q1172.5165434253272 398.06763409538956 1172.5165434253272 408.1899158646626L1172.5165434253272 408.1899158646626L1172.5165434253272 457.4199842458697ZM1199.1016861482053 457.4199842458697L1199.1016861482053 375.89825187588553L1212.1451633274028 375.89825187588553L1212.1451633274028 457.4199842458697L1199.1016861482053 457.4199842458697ZM1196.3390052178893 351.1247032056737L1196.3390052178893 351.1247032056737Q1196.3390052178893 347.3656455463911 1198.8525919659637 344.67089939305Q1201.3888236396965 341.9761532397088 1205.3063957785876 341.9761532397088L1205.3063957785876 341.9761532397088Q1209.2013229918202 341.9761532397088 1211.9866488477946 344.67089939305Q1214.7493297781107 347.3656455463911 1214.7493297781107 351.1247032056737L1214.7493297781107 351.1247032056737Q1214.7493297781107 354.861115939298 1211.9866488477946 357.3067679103975Q1209.2013229918202 359.752419881497 1205.3063957785876 359.752419881497L1205.3063957785876 359.752419881497Q1201.3888236396965 359.752419881497 1198.8525919659637 357.3067679103975Q1196.3390052178893 354.861115939298 1196.3390052178893 351.1247032056737ZM1294.6406275006952 441.4326667310895L1299.5319314428943 450.898245656271Q1294.6406275006952 454.8158177951619 1287.2357368104217 457.1029552866531Q1279.8082011944898 459.367447852486 1271.4975134778829 459.367447852486L1271.4975134778829 459.367447852486Q1262.1904490323095 459.367447852486 1255.3516814834943 456.35567273992825Q1248.512913934679 453.3438976273705 1244.0971534313053 447.72795606410494Q1239.7040378535894 442.089369575181 1237.5754148417063 434.27687022305753Q1235.4694367554816 426.4417259452757 1235.4694367554816 416.65911806087763L1235.4694367554816 416.65911806087763Q1235.4694367554816 395.78049660389837 1244.7538562753966 384.8656424365838Q1254.0382757953112 373.95078826926925 1271.3389989982747 373.95078826926925L1271.3389989982747 373.95078826926925Q1276.8643608589068 373.95078826926925 1282.4123676451973 375.17361425481903Q1287.9603744314882 376.3964402403688 1292.353490009204 379.81582401477647Q1296.7692505125779 383.23520778918413 1299.5319314428943 389.50785219654125Q1302.3172572988688 395.78049660389837 1302.3172572988688 406.06129285277973L1302.3172572988688 406.06129285277973Q1302.3172572988688 411.450785159462 1301.3208805699023 417.9725237490607L1301.3208805699023 417.9725237490607L1248.988457373504 417.9725237490607Q1248.988457373504 425.12832025709264 1250.4603775412957 430.67632704338325Q1251.932297709087 436.2243338296738 1255.0346525242776 440.05132626593144Q1258.1143624138103 443.878318702189 1263.096246058643 445.9163620114386Q1268.078129703475 447.95440532068824 1275.233926211507 447.95440532068824L1275.233926211507 447.95440532068824Q1280.7819329977979 447.95440532068824 1286.3299397840883 446.0069417140719Q1291.8779465703788 444.0594781074556 1294.6406275006952 441.4326667310895L1294.6406275006952 441.4326667310895ZM1271.4975134778829 385.3638308010671L1271.4975134778829 385.3638308010671Q1261.8734200730933 385.3638308010671 1256.0763191045608 390.4136492228744Q1250.301863061687 395.46346764468177 1249.1469718531125 407.69172750017935L1249.1469718531125 407.69172750017935L1289.5908090788876 407.69172750017935Q1289.5908090788876 395.30495316507347 1284.858019616297 390.3230695202411Q1280.125230153706 385.3638308010671 1271.4975134778829 385.3638308010671ZM1318.2819298879904 449.92451385296283L1318.2819298879904 449.92451385296283Q1318.2819298879904 445.5087533495887 1320.8181615617232 442.99516660151414Q1323.3317483097976 440.45893492778134 1327.5889943335637 440.45893492778134L1327.5889943335637 440.45893492778134Q1331.9821099112796 440.45893492778134 1334.586276361987 442.99516660151414Q1337.190442812695 445.5087533495887 1337.190442812695 449.92451385296283L1337.190442812695 449.92451385296283Q1337.190442812695 454.15911495107036 1334.586276361987 456.76328140177816Q1331.9821099112796 459.367447852486 1327.5889943335637 459.367447852486L1327.5889943335637 459.367447852486Q1323.3317483097976 459.367447852486 1320.8181615617232 456.76328140177816Q1318.2819298879904 454.15911495107036 1318.2819298879904 449.92451385296283ZM1353.1777603274754 416.65911806087763L1353.1777603274754 416.65911806087763Q1353.1777603274754 395.961656009165 1362.3942450704153 384.9562221392171Q1371.6107298133552 373.95078826926925 1388.88880809066 373.95078826926925L1388.88880809066 373.95078826926925Q1398.0147131309668 373.95078826926925 1404.785545902807 376.962563381827Q1411.5563786746475 379.97433849438477 1415.9494942523634 385.5902800576504Q1420.3426098300788 391.22886654657424 1422.4712328419619 399.13194560133104Q1424.599855853845 407.03502465608784 1424.599855853845 416.65911806087763L1424.599855853845 416.65911806087763Q1424.599855853845 437.3565801125903 1415.383371110905 448.36201398253814Q1406.1668863679652 459.367447852486 1388.88880809066 459.367447852486L1388.88880809066 459.367447852486Q1379.7629030503535 459.367447852486 1372.992070278513 456.35567273992825Q1366.2212375066729 453.3438976273705 1361.828121928957 447.72795606410494Q1357.4123614255827 442.089369575181 1355.306383339358 434.1862905204242Q1353.1777603274754 426.2832114656674 1353.1777603274754 416.65911806087763ZM1366.719425871156 416.65911806087763L1366.719425871156 416.65911806087763Q1366.719425871156 422.86382769125976 1367.9422518567058 428.57034895715867Q1369.1650778422554 434.27687022305753 1371.7692442929633 438.51147132116506Q1374.3734107436712 442.74607241927254 1378.6080118417785 445.3502388699804Q1382.8426129398863 447.95440532068824 1388.88880809066 447.95440532068824L1388.88880809066 447.95440532068824Q1411.0581903101643 448.13556472595485 1411.0581903101643 416.65911806087763L1411.0581903101643 416.65911806087763Q1411.0581903101643 410.2958939508872 1409.8353643246141 404.58937268498835Q1408.6125383390645 398.88285141908943 1406.0083718883566 394.6482503209819Q1403.4042054376487 390.4136492228744 1399.146959413883 387.87741754914157Q1394.9123583157757 385.3638308010671 1388.88880809066 385.3638308010671L1388.88880809066 385.3638308010671Q1366.719425871156 385.1826713958004 1366.719425871156 416.65911806087763ZM1510.5147038015448 457.4199842458697L1497.4712266223473 457.4199842458697L1497.4712266223473 410.9525967949787Q1497.4712266223473 398.22614857499786 1493.802748665698 391.7949896880325Q1490.1342707090485 385.3638308010671 1480.3516628246507 385.3638308010671L1480.3516628246507 385.3638308010671Q1471.7013012231691 385.3638308010671 1466.0853596599036 390.00604056102446Q1460.4694180966376 394.6482503209819 1458.1822806051464 401.6681772750639L1458.1822806051464 401.6681772750639L1458.1822806051464 457.4199842458697L1445.138803425949 457.4199842458697L1445.138803425949 375.89825187588553L1454.2647084662558 375.89825187588553L1456.7103604373551 385.839374239892L1457.367063281447 385.839374239892Q1461.2846354203375 380.63104133847634 1467.8743087869116 377.2795923410436Q1474.4866270791435 373.95078826926925 1483.61253211945 373.95078826926925L1483.61253211945 373.95078826926925Q1490.292785188657 373.95078826926925 1495.3426036104643 375.49064321403563Q1500.4150669579303 377.030498158802 1503.7438710297042 380.9480702976929Q1507.095320027137 384.8656424365838 1508.793689451512 391.47796072881584Q1510.5147038015448 398.06763409538956 1510.5147038015448 408.1899158646626L1510.5147038015448 408.1899158646626L1510.5147038015448 457.4199842458697ZM1588.9340813563376 441.4326667310895L1593.8253852985367 450.898245656271Q1588.9340813563376 454.8158177951619 1581.529190666064 457.1029552866531Q1574.1016550501322 459.367447852486 1565.7909673335257 459.367447852486L1565.7909673335257 459.367447852486Q1556.4839028879524 459.367447852486 1549.6451353391371 456.35567273992825Q1542.806367790322 453.3438976273705 1538.3906072869477 447.72795606410494Q1533.9974917092318 442.089369575181 1531.8688686973487 434.27687022305753Q1529.7628906111245 426.4417259452757 1529.7628906111245 416.65911806087763L1529.7628906111245 416.65911806087763Q1529.7628906111245 395.78049660389837 1539.047310131039 384.8656424365838Q1548.331729650954 373.95078826926925 1565.6324528539171 373.95078826926925L1565.6324528539171 373.95078826926925Q1571.1578147145497 373.95078826926925 1576.70582150084 375.17361425481903Q1582.2538282871305 376.3964402403688 1586.6469438648464 379.81582401477647Q1591.0627043682207 383.23520778918413 1593.8253852985367 389.50785219654125Q1596.6107111545111 395.78049660389837 1596.6107111545111 406.06129285277973L1596.6107111545111 406.06129285277973Q1596.6107111545111 411.450785159462 1595.6143344255447 417.9725237490607L1595.6143344255447 417.9725237490607L1543.2819112291468 417.9725237490607Q1543.2819112291468 425.12832025709264 1544.753831396938 430.67632704338325Q1546.2257515647293 436.2243338296738 1549.3281063799204 440.05132626593144Q1552.4078162694532 443.878318702189 1557.3896999142858 445.9163620114386Q1562.3715835591179 447.95440532068824 1569.5273800671498 447.95440532068824L1569.5273800671498 447.95440532068824Q1575.0753868534402 447.95440532068824 1580.6233936397311 446.0069417140719Q1586.1714004260216 444.0594781074556 1588.9340813563376 441.4326667310895L1588.9340813563376 441.4326667310895ZM1565.7909673335257 385.3638308010671L1565.7909673335257 385.3638308010671Q1556.166873928736 385.3638308010671 1550.3697729602036 390.4136492228744Q1544.59531691733 395.46346764468177 1543.440425708755 407.69172750017935L1543.440425708755 407.69172750017935L1583.8842629345304 407.69172750017935Q1583.8842629345304 395.30495316507347 1579.1514734719399 390.3230695202411Q1574.418684009349 385.3638308010671 1565.7909673335257 385.3638308010671Z " fill="#161b21" transform="matrix(0.5480359191875368,0,0,0.5480359191875368,0,71.48210143069537)"/></g></svg>